<svg width="100" height="100" viewBox="0 0 100 100" fill="none" xmlns="http://www.w3.org/2000/svg">
<g clip-path="url(#clip0_103_41)">
<rect x="5" y="5" width="90" height="90" rx="15" fill="white" stroke="black" stroke-width="10"/>
<path d="M31.856 77.684C29.6267 77.684 27.904 77.076 26.688 75.86C25.472 74.644 24.864 72.8707 24.864 70.54V29.88C24.864 27.5493 25.472 25.776 26.688 24.56C27.904 23.344 29.6267 22.736 31.856 22.736C34.0853 22.736 35.808 23.344 37.024 24.56C38.24 25.776 38.848 27.5493 38.848 29.88V44.092H60.964V29.88C60.964 27.5493 61.572 25.776 62.788 24.56C64.004 23.344 65.7267 22.736 67.956 22.736C70.1853 22.736 71.8827 23.344 73.048 24.56C74.264 25.776 74.872 27.5493 74.872 29.88V70.54C74.872 72.8707 74.264 74.644 73.048 75.86C71.8827 77.076 70.1853 77.684 67.956 77.684C65.676 77.684 63.928 77.076 62.712 75.86C61.5467 74.644 60.964 72.8707 60.964 70.54V55.568H38.848V70.54C38.848 72.8707 38.24 74.644 37.024 75.86C35.8587 77.076 34.136 77.684 31.856 77.684Z" fill="black"/>
</g>
<defs>
<clipPath id="clip0_103_41">
<rect width="100" height="100" fill="white"/>
</clipPath>
</defs>
</svg>
